<svg width="32" height="32" viewBox="0 0 32 32" fill="none" xmlns="http://www.w3.org/2000/svg">
<rect x="0.5" y="0.5" width="31" height="31" rx="15.5" fill="white"/>
<rect x="0.5" y="0.5" width="31" height="31" rx="15.5" stroke="#D8E0E8"/>
<path d="M16 12.5C15.7239 12.5 15.5 12.2761 15.5 12C15.5 11.7239 15.7239 11.5 16 11.5C16.2761 11.5 16.5 11.7239 16.5 12C16.5 12.2761 16.2761 12.5 16 12.5Z" fill="#0E263F"/>
<path d="M16 16.5C15.7239 16.5 15.5 16.2761 15.5 16C15.5 15.7239 15.7239 15.5 16 15.5C16.2761 15.5 16.5 15.7239 16.5 16C16.5 16.2761 16.2761 16.5 16 16.5Z" fill="#0E263F"/>
<path d="M16 20.5C15.7239 20.5 15.5 20.2761 15.5 20C15.5 19.7239 15.7239 19.5 16 19.5C16.2761 19.5 16.5 19.7239 16.5 20C16.5 20.2761 16.2761 20.5 16 20.5Z" fill="#0E263F"/>
<path d="M16 12.5C15.7239 12.5 15.5 12.2761 15.5 12C15.5 11.7239 15.7239 11.5 16 11.5C16.2761 11.5 16.5 11.7239 16.5 12C16.5 12.2761 16.2761 12.5 16 12.5Z" stroke="#0E263F" stroke-width="1.5" stroke-linecap="round" stroke-linejoin="round"/>
<path d="M16 16.5C15.7239 16.5 15.5 16.2761 15.5 16C15.5 15.7239 15.7239 15.5 16 15.5C16.2761 15.5 16.5 15.7239 16.5 16C16.5 16.2761 16.2761 16.5 16 16.5Z" stroke="#0E263F" stroke-width="1.5" stroke-linecap="round" stroke-linejoin="round"/>
<path d="M16 20.5C15.7239 20.5 15.5 20.2761 15.5 20C15.5 19.7239 15.7239 19.5 16 19.5C16.2761 19.5 16.5 19.7239 16.5 20C16.5 20.2761 16.2761 20.5 16 20.5Z" stroke="#0E263F" stroke-width="1.5" stroke-linecap="round" stroke-linejoin="round"/>
</svg>
