<svg width="36" height="36" viewBox="0 0 36 36" fill="none" xmlns="http://www.w3.org/2000/svg">
<path d="M0 18C0 8.05888 8.05888 0 18 0C27.9411 0 36 8.05888 36 18C36 27.9411 27.9411 36 18 36C8.05888 36 0 27.9411 0 18Z" fill="#E8EDF2"/>
<path d="M10.5 24.6667C12.4465 22.6021 15.0892 21.3333 18 21.3333C20.9108 21.3333 23.5535 22.6021 25.5 24.6667M21.75 14.25C21.75 16.3211 20.0711 18 18 18C15.9289 18 14.25 16.3211 14.25 14.25C14.25 12.1789 15.9289 10.5 18 10.5C20.0711 10.5 21.75 12.1789 21.75 14.25Z" stroke="#0E263F" stroke-linecap="round" stroke-linejoin="round"/>
</svg>
